<?xml version="1.0" encoding="UTF-8" standalone="no"?>
<!-- Created with Inkscape (http://www.inkscape.org/) -->

<svg
   width="15.992185"
   height="11.688632"
   viewBox="0 0 4.2312655 3.0926173"
   version="1.1"
   id="svg1"
   inkscape:version="1.4 (e7c3feb100, 2024-10-09)"
   sodipodi:docname="OpenWorkbookWeb.svg"
   xmlns:inkscape="http://www.inkscape.org/namespaces/inkscape"
   xmlns:sodipodi="http://sodipodi.sourceforge.net/DTD/sodipodi-0.dtd"
   xmlns="http://www.w3.org/2000/svg"
   xmlns:svg="http://www.w3.org/2000/svg">
  <sodipodi:namedview
     id="namedview1"
     pagecolor="#ffffff"
     bordercolor="#000000"
     borderopacity="0.25"
     inkscape:showpageshadow="2"
     inkscape:pageopacity="0.0"
     inkscape:pagecheckerboard="0"
     inkscape:deskcolor="#d1d1d1"
     inkscape:document-units="mm"
     showguides="false"
     inkscape:zoom="32"
     inkscape:cx="2.359375"
     inkscape:cy="3.90625"
     inkscape:window-width="2560"
     inkscape:window-height="1371"
     inkscape:window-x="1440"
     inkscape:window-y="32"
     inkscape:window-maximized="1"
     inkscape:current-layer="layer1" />
  <defs
     id="defs1" />
  <g
     inkscape:label="Layer 1"
     inkscape:groupmode="layer"
     id="layer1"
     transform="translate(-18.329325,-107.22627)">
    <path
       style="fill:none;stroke:#1b1b1b;stroke-width:0.106533;stroke-dasharray:none;stroke-opacity:1"
       d="m 19.643497,110.294 c 0.0334,-0.034 0.0675,-0.067 0.1024,-0.099 0.1136,-0.105 0.2365,-0.198 0.3718,-0.256 0.2755,-0.118 0.581,-0.082 0.8657,0 0.171,0.048 0.3388,0.113 0.5096,0.162 0.3288,0.096 0.6686,0.139 1.0071,0.127"
       id="path1" />
    <path
       style="fill:none;stroke:#1b1b1b;stroke-width:0.106533;stroke-dasharray:none;stroke-opacity:1"
       d="m 19.662264,110.037 c 0.0334,-0.035 0.0675,-0.068 0.1024,-0.1 0.1137,-0.105 0.2365,-0.198 0.3718,-0.256 0.2755,-0.118 0.581,-0.081 0.8657,0 0.171,0.049 0.3388,0.113 0.5096,0.163 0.3289,0.096 0.6687,0.138 1.0071,0.126"
       id="path1-1" />
    <path
       style="fill:none;stroke:#1b1b1b;stroke-width:0.106224;stroke-dasharray:none;stroke-opacity:1"
       d="m 19.688735,110.019 c -0.033,-0.034 -0.0669,-0.068 -0.1017,-0.1 -0.1134,-0.104 -0.2365,-0.194 -0.3696,-0.256 -0.2737,-0.127 -0.5867,-0.127 -0.8604,0"
       id="path1-1-6"
       sodipodi:nodetypes="cssc" />
    <path
       style="fill:none;stroke:#1b1b1b;stroke-width:0.106533;stroke-dasharray:none;stroke-opacity:1"
       d="m 19.691235,107.713 c -0.0332,-0.035 -0.0673,-0.068 -0.1023,-0.1 -0.114,-0.104 -0.2379,-0.194 -0.3718,-0.256 -0.2754,-0.127 -0.5904,-0.127 -0.8657,0"
       id="path1-1-6-5"
       sodipodi:nodetypes="cssc" />
    <path
       style="fill:none;stroke:#1b1b1b;stroke-width:0.106533;stroke-dasharray:none;stroke-opacity:1"
       d="m 19.717636,110.294 c -0.0366,-0.04 -0.0745,-0.078 -0.1136,-0.114 -0.1135,-0.105 -0.2377,-0.194 -0.3718,-0.256 -0.2755,-0.126 -0.5902,-0.126 -0.8657,0"
       id="path1-1-6-5-9"
       sodipodi:nodetypes="cssc" />
    <path
       style="fill:none;stroke:#1b1b1b;stroke-width:0.106533;stroke-dasharray:none;stroke-opacity:1"
       d="m 19.672399,107.717 c 0.0334,-0.034 0.0675,-0.068 0.1024,-0.1 0.1137,-0.105 0.2365,-0.198 0.3718,-0.256 0.2755,-0.118 0.581,-0.081 0.8657,0 0.171,0.049 0.3388,0.113 0.5096,0.163 0.3289,0.096 0.6687,0.139 1.0071,0.126"
       id="path1-1-3" />
    <path
       style="fill:none;stroke:#1b1b1b;stroke-width:0.108622;stroke-dasharray:none;stroke-opacity:1"
       d="m 22.477058,107.59847 v 2.68204"
       id="path2" />
    <path
       style="fill:none;stroke:#1b1b1b;stroke-width:0.10597395;stroke-dasharray:none;stroke-opacity:1"
       d="m 19.683,110.272 v -2.565"
       id="path3" />
    <path
       style="font-size:14.1111px;font-family:Inconsolata;-inkscape-font-specification:Inconsolata;fill:#1b1b1b;stroke-width:0.358;stroke-dasharray:none"
       d="m 20.7042,108.993 -0.5871,-0.343 v -0.066 L 20.7,108.276 v 0.098 l -0.4782,0.244 0.4824,0.27 z m 0.2232,0.123 -0.0813,-0.04 0.4313,-0.934 0.0827,0.042 z m 0.5746,-0.123 v -0.105 l 0.481,-0.27 -0.4782,-0.244 v -0.097 l 0.5843,0.307 v 0.066 z"
       id="text4"
       aria-label="&lt;/&gt;" />
  </g>
</svg>
